<?xml version="1.0" encoding="utf-8"?>
<!-- Generator: Adobe Illustrator 22.1.0, SVG Export Plug-In . SVG Version: 6.00 Build 0)  -->
<svg version="1.1" id="Слой_1" xmlns="http://www.w3.org/2000/svg" xmlns:xlink="http://www.w3.org/1999/xlink" x="0px" y="0px"
	 viewBox="0 0 27.7 12" style="enable-background:new 0 0 27.7 12;" xml:space="preserve">
<style type="text/css">
	.st0{fill:#E8D9AC;}
</style>
<path class="st0" d="M1.5,5.7C0.7,5.1,0.3,4.2,0.3,3.2C0.3,1.4,1.7,0,3.5,0c1.6,0,2.9,1.1,3.2,2.6l13.7,0C20.7,1.1,22,0,23.6,0
	c1.8,0,3.3,1.4,3.3,3.2c0,1-0.5,1.9-1.2,2.5c0.7,0.6,1.2,1.5,1.2,2.5c0,1.8-1.5,3.2-3.3,3.2c-1.7,0-3-1.2-3.2-2.8l-13.6,0
	c-0.2,1.6-1.6,2.8-3.2,2.8c-1.8,0-3.3-1.4-3.3-3.2C0.3,7.2,0.7,6.3,1.5,5.7z"/>
</svg>
