<?xml version="1.0" encoding="utf-8"?>
<!-- Generator: Adobe Illustrator 22.1.0, SVG Export Plug-In . SVG Version: 6.00 Build 0)  -->
<svg version="1.1" id="Слой_1" xmlns="http://www.w3.org/2000/svg" xmlns:xlink="http://www.w3.org/1999/xlink" x="0px" y="0px"
	 viewBox="0 0 500 391" style="enable-background:new 0 0 500 391;" xml:space="preserve">
<style type="text/css">
	.st0{fill:#E6EADF;}
	.st1{fill:#E8D9AC;}
	.st2{fill:#E8C26D;}
	.st3{fill:#CCB5A3;stroke:#E8C26D;stroke-width:4;stroke-miterlimit:10;}
	.st4{fill:none;stroke:#735D8E;stroke-width:0.5;stroke-miterlimit:10;}
	.st5{fill:#E8C26D;stroke:#735D8E;stroke-width:0.5;stroke-miterlimit:10;}
	.st6{fill:none;stroke:#FFFFFF;stroke-miterlimit:10;}
	.st7{fill:#F1D77F;stroke:#F1D77F;stroke-miterlimit:10;}
	.st8{fill:#FFFFFF;}
</style>
<ellipse class="st0" cx="188" cy="208.9" rx="187.6" ry="181.9"/>
<polyline class="st1" points="96.7,200.5 283.6,7 470.2,200.5 "/>
<polyline class="st1" points="470.3,196.8 470.3,342.1 96.8,342.1 96.7,196.8 "/>
<polyline class="st2" points="470.3,299.2 470.3,342.1 96.8,342.1 96.8,299.2 "/>
<rect x="48.9" y="101" transform="matrix(0.6929 -0.721 0.721 0.6929 -21.7627 172.2581)" class="st2" width="284.9" height="21.4"/>
<rect x="236.1" y="99.7" transform="matrix(0.7302 0.6833 -0.6833 0.7302 179.2163 -233.0114)" class="st2" width="297.1" height="21.4"/>
<path class="st3" d="M314,233.3v80.3c0,4.7-3.8,8.4-8.4,8.4H161.7c-4.7,0-8.4-3.8-8.4-8.4v-80.3"/>
<path class="st3" d="M312.9,234.9c1,0,1.6-0.2,1-0.9l-79.3-81.3c-0.4-0.4-1.1-0.4-1.6,0L153.4,234c-0.5,0.5,0.7,0.6,1.2,1"/>
<line class="st4" x1="96.5" y1="193.6" x2="283.5" y2="1.1"/>
<line class="st4" x1="170.6" y1="108.7" x2="259.4" y2="17.4"/>
<line class="st4" x1="130.2" y1="150.4" x2="164.1" y2="115.5"/>
<line class="st4" x1="170.6" y1="147.3" x2="283.6" y2="30.8"/>
<line class="st4" x1="142.9" y1="175.9" x2="166.4" y2="151.7"/>
<line class="st4" x1="153.3" y1="226.2" x2="227.1" y2="150.1"/>
<line class="st4" x1="132.1" y1="188" x2="140.1" y2="179.8"/>
<line class="st4" x1="283" y1="0.6" x2="500.4" y2="204.1"/>
<line class="st4" x1="296.7" y1="43" x2="434.7" y2="171.7"/>
<line class="st4" x1="261.3" y1="196.4" x2="305.9" y2="239.3"/>
<line class="st4" x1="246.9" y1="182.6" x2="259.1" y2="194.3"/>
<line class="st4" x1="239.5" y1="175.5" x2="245" y2="180.7"/>
<line class="st4" x1="470.3" y1="342.1" x2="470.3" y2="205.3"/>
<line class="st4" x1="476.1" y1="301.3" x2="476.1" y2="218.6"/>
<line class="st4" x1="476.1" y1="343.8" x2="476.1" y2="337.6"/>
<line class="st4" x1="476.1" y1="333.9" x2="476.1" y2="306"/>
<line class="st4" x1="132.5" y1="342.6" x2="470.3" y2="342.1"/>
<path class="st4" d="M378.8,351.8"/>
<path class="st4" d="M20.1,351.8"/>
<line class="st4" x1="406.2" y1="347" x2="423" y2="347"/>
<line class="st4" x1="428.8" y1="347" x2="470.2" y2="347"/>
<line class="st4" x1="415.7" y1="299.2" x2="463.5" y2="299.2"/>
<line class="st4" x1="106.1" y1="298.5" x2="148.1" y2="298.5"/>
<line class="st4" x1="391.7" y1="299.2" x2="410.9" y2="299.2"/>
<circle class="st5" cx="332.7" cy="162.3" r="18.4"/>
<path class="st6" d="M332.7,150.8c7.4-1.1,14.5,4.5,13.6,12.1"/>
<circle class="st7" cx="332.7" cy="163.8" r="5.6"/>
<ellipse class="st4" cx="333.1" cy="179.9" rx="11.1" ry="13.8"/>
<line class="st4" x1="148.1" y1="257.6" x2="148.1" y2="299.2"/>
<line class="st4" x1="305.7" y1="243.1" x2="305.7" y2="310.2"/>
<line class="st4" x1="148.1" y1="235.1" x2="148.1" y2="255"/>
<circle class="st2" cx="184" cy="366.7" r="4"/>
<circle class="st2" cx="47.5" cy="232.7" r="4"/>
<circle class="st2" cx="283.6" cy="351.8" r="4"/>
<circle class="st2" cx="145.4" cy="54" r="4"/>
<circle class="st2" cx="111.7" cy="155.2" r="4"/>
<circle class="st2" cx="40.5" cy="174.2" r="4"/>
<line class="st4" x1="8.3" y1="186.5" x2="8.3" y2="202.1"/>
<line class="st4" x1="16.1" y1="194.3" x2="0.6" y2="194.3"/>
<line class="st4" x1="101.5" y1="97.9" x2="101.5" y2="113.5"/>
<line class="st4" x1="109.3" y1="105.7" x2="93.7" y2="105.7"/>
<line class="st4" x1="239.2" y1="343.9" x2="239.2" y2="359.6"/>
<line class="st4" x1="246.9" y1="351.8" x2="231.4" y2="351.8"/>
<line class="st4" x1="199.1" y1="22.8" x2="199.1" y2="38.4"/>
<line class="st4" x1="206.9" y1="30.6" x2="191.3" y2="30.6"/>
<circle class="st2" cx="423.1" cy="86.1" r="4"/>
<circle class="st2" cx="398.9" cy="29.4" r="4"/>
<line class="st4" x1="347.5" y1="18.2" x2="347.5" y2="33.8"/>
<line class="st4" x1="355.3" y1="26" x2="339.7" y2="26"/>
<line class="st4" x1="435.9" y1="40.7" x2="435.9" y2="56.3"/>
<line class="st4" x1="443.6" y1="48.5" x2="428.1" y2="48.5"/>
<path class="st8" d="M149.6,80.3c-0.6-0.7-0.8-1.7-0.6-2.7c0.4-1.8,2.1-2.9,3.9-2.5c1.6,0.3,2.6,1.8,2.5,3.3l13.4,3
	c0.6-1.4,2.1-2.3,3.7-1.9c1.8,0.4,2.9,2.1,2.5,3.9c-0.2,1-0.9,1.8-1.7,2.2c0.6,0.7,0.8,1.7,0.6,2.7c-0.4,1.8-2.1,2.9-3.9,2.5
	c-1.6-0.4-2.7-1.9-2.5-3.5l-13.3-3c-0.6,1.5-2.1,2.4-3.8,2.1c-1.8-0.4-2.9-2.1-2.5-3.9C148.1,81.5,148.8,80.7,149.6,80.3z"/>
<path class="st8" d="M60,126.3c-0.9-0.2-1.7-0.8-2.2-1.7c-0.8-1.6-0.1-3.6,1.5-4.4c1.4-0.7,3.1-0.2,4.1,1l12.3-6
	c-0.4-1.5,0.3-3.1,1.7-3.8c1.6-0.8,3.6-0.1,4.4,1.5c0.4,0.9,0.4,1.9,0,2.8c0.9,0.2,1.7,0.8,2.2,1.7c0.8,1.6,0.1,3.6-1.5,4.4
	c-1.5,0.7-3.3,0.2-4.1-1.1l-12.3,6c0.5,1.5-0.2,3.2-1.6,4c-1.6,0.8-3.6,0.1-4.4-1.5C59.6,128.2,59.7,127.2,60,126.3z"/>
<path class="st8" d="M119.7,364.9c-0.9-0.2-1.7-0.8-2.2-1.7c-0.8-1.6-0.1-3.6,1.5-4.4c1.4-0.7,3.1-0.2,4.1,1l12.3-6
	c-0.4-1.5,0.3-3.1,1.7-3.8c1.6-0.8,3.6-0.1,4.4,1.5c0.4,0.9,0.4,1.9,0,2.8c0.9,0.2,1.7,0.8,2.2,1.7c0.8,1.6,0.1,3.6-1.5,4.4
	c-1.5,0.7-3.3,0.2-4.1-1.1l-12.3,6c0.5,1.5-0.2,3.2-1.6,4c-1.6,0.8-3.6,0.1-4.4-1.5C119.3,366.8,119.3,365.8,119.7,364.9z"/>
</svg>
