<?xml version="1.0" encoding="utf-8"?>
<!-- Generator: Adobe Illustrator 22.1.0, SVG Export Plug-In . SVG Version: 6.00 Build 0)  -->
<svg version="1.1" id="Слой_1" xmlns="http://www.w3.org/2000/svg" xmlns:xlink="http://www.w3.org/1999/xlink" x="0px" y="0px"
	 viewBox="0 0 140 160" style="enable-background:new 0 0 140 160;" xml:space="preserve">
<style type="text/css">
	.st0{fill:#9084A0;}
	.st1{fill:#E4E4E4;}
	.st2{fill:#F6F6F6;}
	.st3{fill:#4E4E4E;}
	.st4{fill:#735D8E;}
	.st5{fill:#494949;}
	.st6{fill:#E3DFE8;}
	.st7{fill:#363636;}
</style>
<ellipse class="st0" cx="74.9" cy="151.4" rx="63.5" ry="8.8"/>
<path class="st1" d="M88.5,132.4c0,0-2.9,13.1,2.4,16.6s11,0.2,11,0.2l-0.1-18L88,132.5L88.5,132.4z"/>
<path class="st1" d="M62.8,132.3c0,0,2.9,13.1-2.4,16.6s-11,0.2-11,0.2l0.1-18l13.8,1.2L62.8,132.3z"/>
<g>
	<path class="st2" d="M27.2,77.9c-7,12.5-6.8,28.8,0.5,41.2c1.8,3,3.9,5.8,5.1,9c1.6,4.6,1.1,9.7,1.9,14.6
		c0.8,4.9,3.7,10.1,8.5,10.8c3.9,0.6,7.7-2,9.7-5.4c2-3.3,2.7-7.3,3.4-11.2c0.1-0.6,0.2-1.2,0.7-1.6c0.3-0.2,0.6-0.2,1-0.3
		c12-1.6,24.2-2.1,36.3-1.6c0.6,0,1.1,0.1,1.6,0.4c1,0.6,1,2.1,0.9,3.3c-0.3,2.9-0.5,5.8,0.1,8.6c0.7,2.8,2.4,5.5,5.1,6.7
		c3.3,1.4,7.2,0.2,9.9-2.2c2.7-2.4,4.2-5.7,5.6-9c4.1-10,6.6-20.5,9.1-31c0.7-3.1,1.5-6.2,1.4-9.4c-0.1-3.1-1-6.1-2.1-9
		c-1-2.6-2.2-5.1-3.9-7.2c-3.6-4.2-9.1-6.1-14.4-7.4c-4.7-1.2-9.6-2.1-14.4-2.6c-7.6-0.9-15.7-1.1-22.2-5L27.2,77.9z"/>
</g>
<g>
	<path class="st3" d="M139.7,77.6c0-2.8-0.2-5.5-0.7-8.2c-0.2-1.4-1.4-2.1-2.5-2.1c-0.2,0-0.4,0-0.6,0.1c0,0,0,0,0,0c0,0,0,0,0,0
		c-0.6,0.1-1.1,0.5-1.4,1.1c0,0.1-0.1,0.1-0.1,0.2c-3.1,6.1-7.2,11.6-12,16.5c-0.1-0.2-0.2-0.3-0.4-0.5c-3.6-4.2-9.1-6.1-14.4-7.4
		c-4.7-1.2-9.6-2.1-14.4-2.6C88,74,82.7,73.7,77.7,72.4c-2.4-0.6-4.7-1.5-6.8-2.8l-43.7,8.4c-5.4,9.7-6.5,21.6-3.3,32.2
		c0.9,3.1,2.2,6.1,3.9,9c0.7,1.2,1.5,2.4,2.3,3.7c9.1,4.7,19.1,5.2,28.7,1.9c5-1.7,9.7-4.5,14.6-6.6c5.2-2.2,10.6-3.7,16.1-4.3
		c7.4-0.9,15.2-0.1,21.6,5.1c3.8,3.1,7,7.5,10.5,11.4c2-6.5,3.6-13.2,5.2-19.8c0.6-2.4,1.1-4.9,1.3-7.3c2.8-3.4,5.7-7.7,7.4-10.2
		C138.4,88.3,139.6,82.9,139.7,77.6z"/>
</g>
<path class="st1" d="M99.9,151.1c0,0,3-2.3,3.5-5.9c0,0,0.4,5.5-0.8,7.4C102.6,152.5,100.7,152,99.9,151.1z"/>
<path class="st1" d="M105.4,152.8c0,0,1.7-4.2,1.3-6.8c0,0,1.6,4.1,1.3,6.6C108,152.6,106.4,153.1,105.4,152.8z"/>
<path class="st1" d="M39.1,151.7c0,0,3-2.3,3.5-5.9c0,0,0.4,5.5-0.8,7.4C41.9,153.2,40,152.7,39.1,151.7z"/>
<path class="st1" d="M44.6,153.5c0,0,1.7-4.2,1.3-6.8c0,0,1.6,4.1,1.3,6.6C47.2,153.2,45.7,153.8,44.6,153.5z"/>
<g>
	<path class="st4" d="M91.5,75.2c0,0-5.2-1.8-3.4-6.2c1.8-4.4,5.8-9.5,5.8-9.5s7.4,6.7,0.6,16.3L91.5,75.2z"/>
	<path class="st4" d="M91.9,73c0,0-2.9-4.7,1.2-7c4.2-2.3,10.5-3.8,10.5-3.8s1.7,9.8-9.7,13.2L91.9,73z"/>
	<path class="st4" d="M94.9,79.3c-4.7,8.3-23.6,34.8-41.9,40.9c-0.7,0.2-1.5,0.2-2.3-0.1c-4.7-1.7-22.8-8.8-29.1-17.4
		c0,0-2.8-3.5,0-6c2.5-2.2,54.2-21.4,66-25.4c1.4-0.5,5.1,0.5,6.1,1.7l2,1.3C96.8,75.4,95.7,77.9,94.9,79.3z"/>
</g>
<g>
	<path class="st5" d="M27.3,22.8c0,0-4.1-14.1-26.2-6.7c0,0-4.8,19.3,11.9,22.9C13,39,29.3,32.3,27.3,22.8z"/>
	<path class="st6" d="M24,25.2c0,0-5.1-10.2-18.9-4.6c0,0-0.7,12.9,10.5,15.8C15.7,36.4,22.6,33,24,25.2z"/>
	<path class="st5" d="M50.8,19.6c0,0-1.4-14.6,21.9-15.9c0,0,11.5,16.2-2.7,25.7C70,29.4,52.4,29.2,50.8,19.6z"/>
	<path class="st6" d="M54.7,20.7c0,0,1-11.3,15.9-11.2c0,0,5.4,11.8-4,18.5C66.6,28,58.9,27.4,54.7,20.7z"/>
	<path class="st2" d="M91.4,72c-0.4-4-2.7-7.5-6.3-10.4l-8,1.1c-2.1-20-18.8-32.8-33.3-32.9c-14.5-0.1-29.4,15.2-29.3,37.5
		c0,1.5,0.1,2.9,0.2,4.3l-7.4,1.1c-1.9,3.1-3.6,6.8-3.3,10.1C5.5,95,23.9,103,46.1,101.5c4.4-0.1,8.7-0.7,12.6-1.9
		C78.6,95,92.7,83.5,91.4,72z"/>
	<path class="st3" d="M83.2,61.8l1.5-0.2C84,37.1,62,18.1,43,18C24.9,17.9,6.2,38.2,6.4,63.2c0,3.4,0.4,6.6,1,9.5c0,0,0,0,0-0.1
		l-0.1,0.3c5.7,3.7,7.5-1.1,7.5-1.1l-0.1-0.2l0.1,0c-0.1-1.4-0.2-2.8-0.2-4.3c-0.1-9.6,2.6-17.8,6.9-24.1l-0.4,0.7l0.4-0.2
		c4.1-2,7.2-1,9.7,0.7c1.2,0.8,2.1,1.9,3,3c4.9,6.2,7.6,14.6,9.6,22.1l3.1,0.9L46.9,69l2.5-1.3c0-7.7,0.5-16.4,3.6-23.6
		c0.6-1.3,1.2-2.6,2.2-3.6c1.9-2.1,4.5-3.7,8.6-2.9c6.9,5.7,12.2,14.3,13.4,25l0,0c0,0,0,0,0,0.1c0,0,0,0,0,0l0,0
		c0.4,0.5,2.9,3.5,7.5-1L83.2,61.8z"/>
</g>
<g>
	<path class="st7" d="M66.8,60.4c-0.3,2.4-2.4,4.1-4.8,3.8c-2.4-0.3-4.1-2.4-3.8-4.8c0.3-2.4,2.4-4.1,4.8-3.8
		C65.4,55.9,67.1,58,66.8,60.4z"/>
	<path class="st7" d="M31.7,64.9c-0.3,2.4-2.4,4.1-4.8,3.8c-2.4-0.3-4.1-2.4-3.8-4.8c0.3-2.4,2.4-4.1,4.8-3.8
		C30.3,60.4,32,62.5,31.7,64.9z"/>
	<path class="st7" d="M56.6,86c-1.8,0.5-4-0.7-5.5-2.2c-1.1-1.1-1.9-2.7-2.5-4.4L48,74l-1,0.1l0.6,5.4c-0.1,1.7-0.4,3.4-1.2,4.8
		c-1,1.8-2.9,3.6-4.7,3.6c-0.4,0-0.3,0.9,0.1,0.9c2,0,4-1.9,5.2-3.9c0.7-1.3,1.1-2.8,1.2-4.5c0.6,1.5,1.4,2.9,2.4,4
		c1.6,1.6,4.1,3,6,2.4C57.1,86.8,57,85.9,56.6,86z"/>
	<path class="st7" d="M54.4,70.7c0.2,2.4-2.6,6.6-6.6,7.1c-4,0.4-7.7-3.2-7.9-5.6c-0.2-2.4,2.8-4.7,6.8-5.1
		C50.7,66.6,54.1,68.2,54.4,70.7z"/>
</g>
</svg>
