<?xml version="1.0" encoding="utf-8"?>
<!-- Generator: Adobe Illustrator 22.1.0, SVG Export Plug-In . SVG Version: 6.00 Build 0)  -->
<svg version="1.1" id="Слой_1" xmlns="http://www.w3.org/2000/svg" xmlns:xlink="http://www.w3.org/1999/xlink" x="0px" y="0px"
	 viewBox="0 0 140 160" style="enable-background:new 0 0 140 160;" xml:space="preserve">
<style type="text/css">
	.st0{fill:#9084A0;}
	.st1{fill:#735D8E;}
	.st2{fill:#E5D3BF;}
	.st3{fill:#EDDDCB;}
	.st4{fill:#6E6358;}
	.st5{fill:#928475;}
	.st6{fill:#F8E7D7;}
	.st7{fill:#4E4E4E;}
</style>
<g>
	<ellipse class="st0" cx="70.8" cy="151" rx="63.5" ry="8.8"/>
	<g>
		<path class="st1" d="M101.3,80.4c2.1,3.4,6.1,5.1,9.9,6.5c2.5,1,4.9,1.9,7.5,2.4c4.5,0.9,9.2,0.4,13.6,1.5c1.3,0.3,2.9,1.1,3,2.5
			c0,1.2-1.2,2.1-2.1,2.9c-3.8,3.2-5.1,8.3-5.8,13.2c-0.2,1.1-0.3,2.2-0.9,3.1c-0.5,0.7-1.2,1.2-2,1.5c-3,1.3-6.5,0.6-9.4-0.9
			c-2.9-1.5-5.2-3.8-7.7-6c-2.4-2.1-5.1-4.2-8.2-5.1c-2.6-0.7-5.3-0.6-7.9-0.1L101.3,80.4z"/>
	</g>
	<g>
		<g>
			<path class="st2" d="M107.5,140.3c-2.6-3.2-2.8-3.6-5.9-6c2.9-10.8,4.7-22.3,3.7-33.6c-1-11.3-4.9-22.6-12-30l-44.6-0.9
				c-7.1,7.4-11,18.7-12,30c-1,11.3,0.8,22.8,3.7,33.6c-3.1,2.4-3.3,2.8-5.9,6c-1.6,1.9-3.1,4.5-2.6,7.1c0.4,1.9,1.8,3.3,3.2,4.2
				c5.9,4,10.9,6,16.5,1.5c0.6-0.5,1.1-1,1.8-1.1c0.4-0.1,0.8,0,1.1,0c10.4,3.5,21.6,3.9,32.2,1.1c0.6-0.2,1.2-0.3,1.7-0.2
				c0.7,0.1,1.2,0.6,1.8,1.1c5.6,4.5,10.7,2.5,16.5-1.5c1.4-1,2.8-2.3,3.2-4.2C110.6,144.8,109.1,142.2,107.5,140.3z"/>
		</g>
		<g>
			<path class="st3" d="M65.5,156.4C65.5,156.4,65.5,156.4,65.5,156.4c3.3-1.7,5.4-4.9,5.4-8.2c0-2.4-1.1-4.7-1.9-7
				c-2.5-7.4-1.9-15.4-2.1-23.1c-0.2-6.6-1.2-13.6-4.9-19.2c-1-1.5-3-2.4-5.2-2.4l0,0c-2.2,0-4.2,1-5.1,2.6
				c-3.6,5.9-4.3,13-4.2,19.8c0.1,7.8,1.1,15.7-1,23.2c-0.7,2.3-1.6,4.6-1.5,7c0.1,3.3,2.4,6.4,5.7,7.9c0,0,0,0,0,0
				c0.1,0,0.2,0.1,0.3,0.1c0.1,0,0.1,0,0.2,0C56,158,61.3,158.5,65.5,156.4z"/>
		</g>
		<g>
			<path class="st3" d="M92.4,156.3C92.4,156.3,92.4,156.3,92.4,156.3c3.3-1.7,5.4-4.9,5.4-8.2c0-2.4-1.1-4.7-1.9-7
				c-2.5-7.4-1.9-15.4-2.1-23.1c-0.2-6.6-1.2-13.6-4.9-19.2c-1-1.5-3-2.4-5.2-2.4l0,0c-2.2,0-4.2,1-5.1,2.6
				c-3.6,5.9-4.3,13-4.2,19.8c0.1,7.8,1.1,15.7-1,23.2c-0.7,2.3-1.6,4.6-1.5,7c0.1,3.3,2.4,6.4,5.7,7.9c0,0,0,0,0,0
				c0.1,0,0.2,0.1,0.3,0.1c0.1,0,0.1,0,0.2,0C82.9,157.9,88.2,158.4,92.4,156.3z"/>
		</g>
		<g>
			<path class="st2" d="M60.8,157.7c0,0-1.9-3.3-1-6.8c0,0-2.4,4.9-2.1,7.1C57.7,158,59.6,158.2,60.8,157.7z"/>
			<path class="st2" d="M51.6,157c0,0-0.8-4.5,0.1-6.9c0,0-2.4,3.7-2.6,6.2C49.1,156.2,50.5,157,51.6,157z"/>
			<path class="st2" d="M78.9,156.8c0,0,2.2-3,1.7-6.7c0,0,1.9,5.1,1.3,7.3C82,157.4,80,157.5,78.9,156.8z"/>
			<path class="st2" d="M88.9,157.1c0,0,0.8-4.5-0.1-6.9c0,0,2.4,3.7,2.6,6.2C91.4,156.4,90,157.2,88.9,157.1z"/>
		</g>
	</g>
	<g>
		<g>
			<path class="st1" d="M38.4,81.3c-2.1,0.3-3.1,2.4-3.2,4.2c-0.1,1.8,2.8,3.9,1.8,5.5c-1.3,2.1-1.6,2.7-2.7,4.9
				c-1.1,2.3,0.8,4.9,3.3,6c2.5,1.1,2.4,0.9,5.2,0.8c5.9-0.2,11.8-0.2,17.6,0.7c1.9,0.3,3.7,0.7,5.6,1c7.7,1.2,15.7,0.6,23.1-1.6
				c5.3-1.6,10.7-4.2,16.2-3.1c0.5,0.1,0.9,0.2,1.4,0.1c1-0.3,1.2-1.3,1.3-2.2c0.1-1.3,0.2-2.7-0.6-3.9c-0.3-0.5-0.8-0.9-1.2-1.5
				c-0.8-1.2-0.5-2.7-0.5-4.1c0.1-2.1-0.4-4.2-1.4-6.1c-0.2-0.4-0.5-0.9-0.9-1.2c-1.1-0.8-2.7-0.4-4,0c-17.8,5.3-37.7,5.3-55.5,0
				L38.4,81.3z"/>
		</g>
	</g>
	<g>
		<g>
			<path class="st4" d="M36.9,18.7c-6.8,8.1-15.7,14.3-24,20.9c-2.1,1.7-4.3,3.4-6,5.5c-4.1,5-5.4,12.1-3.4,18.2
				c0.8,2.5,2.2,4.9,4.3,6.7c2,1.7,4.8,2.7,7.4,2.4c1.8-0.2,3.4-1,5-1.8c1.6-0.9,3.2-1.9,4.5-3.3c1.5-1.6,2.5-3.6,3.3-5.6
				c2-4.9,3-10.1,5-15.1c1.9-4.9,5-9.7,9.7-12.1c0,0,9.5-16.8-5.2-16.2L36.9,18.7z"/>
		</g>
		<g>
			<path class="st4" d="M102.2,15.4c7.2,7.9,16.2,13.7,24.9,19.9c2.2,1.6,4.4,3.2,6.2,5.2c4.3,4.8,5.9,11.9,4.1,18
				c-0.7,2.6-2,5-4,6.8c-2,1.8-4.7,2.9-7.3,2.7c-1.8-0.1-3.5-0.8-5.1-1.6c-1.7-0.8-3.3-1.8-4.6-3.1c-1.5-1.5-2.6-3.5-3.5-5.4
				c-2.2-4.8-3.4-10-5.6-14.9c-1.7-3.8-4-7.4-7.2-9.9c-3.2-2.5-5.5-6-6.2-10c-0.7-4.1,0.4-8.2,7.7-8.2L102.2,15.4z"/>
		</g>
		<path class="st3" d="M100.6,52c2-4.7,3-10,2.8-15.6C102.8,16.9,87.4,6.9,69,7.5C50.5,8,36.1,19,36.7,38.6
			c0.2,5.1,1.3,9.9,3.3,14.2c-3.7,4.6-5.8,10.1-5.6,15.9C34.9,84.2,51.2,94.8,71,94.2c19.8-0.6,35.7-12.3,35.2-27.8
			C106,61.1,104,56.2,100.6,52z"/>
		<path class="st5" d="M79.6,17c2,6.1,1,12.8-0.1,19.2c-0.6,3.7-1.2,7.4-1.9,11.1c-0.6,3.8-1.3,7.9,0.1,11.5c1,2.6,3,4.8,5.5,6
			c1.9,0.9,4.1,1.3,6.2,1.5c3.7,0.3,7.6,0.2,10.7-1.8c2.4-1.5,4.1-4.3,4-7c-0.9-1.9-2.1-3.8-3.5-5.5c2-4.7,3-10,2.8-15.6
			c-0.3-9-3.7-16-9.1-20.8c-2.4-2.1-5.2-3.8-8.1-5.2c-3.8-1.6-8-2.6-12.5-2.9l-0.8,0C75.8,9.9,78.5,13.6,79.6,17z"/>
		<path class="st5" d="M40.1,64.5c3.1,1.9,7,2.1,10.7,1.8c2.1-0.2,4.3-0.6,6.2-1.5c2.5-1.2,4.5-3.4,5.5-6c1.4-3.6,0.7-7.7,0.1-11.5
			c-0.6-3.7-1.2-7.4-1.9-11.1c-1.1-6.4-2.1-13-0.1-19.2c1.1-3.4,3.7-7,6.4-9.4C54,8.5,43.2,14.8,38.8,25.8c-0.8,2.1-1.4,4.2-1.7,6.5
			c-0.3,2-0.4,4.1-0.4,6.3c0.2,5.1,1.3,9.9,3.3,14.2c-1.5,1.9-2.8,4-3.7,6.1C36.7,61.1,38.2,63.2,40.1,64.5z"/>
		<path class="st6" d="M88.9,76.5c0,10.2-8.3,16.7-18.7,16.7c-10.4,0-19-6.5-19-16.7c0-10.2,8.4-12.8,18.8-12.8S88.9,66.3,88.9,76.5
			z"/>
	</g>
	<g>
		<path class="st7" d="M82.8,51.6c0.4,2.3,2.5,3.9,4.8,3.5c2.3-0.4,3.9-2.5,3.5-4.8c-0.4-2.3-2.5-3.9-4.8-3.5
			C84,47.1,82.4,49.3,82.8,51.6z"/>
		<path class="st7" d="M49.7,51.7c0.4,2.3,2.5,3.9,4.8,3.5c2.3-0.4,3.9-2.5,3.5-4.8c-0.4-2.3-2.5-3.9-4.8-3.5
			C50.9,47.3,49.4,49.4,49.7,51.7z"/>
		<path class="st7" d="M61.2,66.7c0,3,4.1,7.8,9.1,7.8s9-4.9,9-7.9c0-3-4.1-5.4-9.1-5.4C65.2,61.3,61.2,63.7,61.2,66.7z"/>
		<path class="st7" d="M77.8,86.6c-1.8,0.3-3.9-1.2-5.2-2.8c-1-1.3-1.6-2.9-1.9-4.6v-5.4h-1v5.4c-0.3,1.7-0.8,3.3-1.7,4.6
			c-1.2,1.7-3.3,3.2-5.1,3c-0.4-0.1-0.4,0.9,0,0.9c2,0.3,4.2-1.4,5.6-3.3c0.9-1.2,1.4-2.7,1.7-4.3c0.4,1.6,1,3.1,2,4.3
			c1.4,1.8,3.7,3.4,5.7,3.1C78.2,87.5,78.2,86.6,77.8,86.6z"/>
	</g>
</g>
</svg>
