<?xml version="1.0" encoding="utf-8"?>
<!-- Generator: Adobe Illustrator 22.1.0, SVG Export Plug-In . SVG Version: 6.00 Build 0)  -->
<svg version="1.1" id="Слой_1" xmlns="http://www.w3.org/2000/svg" xmlns:xlink="http://www.w3.org/1999/xlink" x="0px" y="0px"
	 viewBox="0 0 140 160" style="enable-background:new 0 0 140 160;" xml:space="preserve">
<style type="text/css">
	.st0{fill:#9084A0;}
	.st1{fill:#F6F6F6;}
	.st2{fill:#FFFFFF;}
	.st3{fill:#E4E4E4;}
	.st4{fill:#F1F1F1;}
	.st5{fill:#363636;}
	.st6{fill:#735D8E;}
</style>
<g>
	<ellipse class="st0" cx="72.6" cy="151.7" rx="63.5" ry="8.8"/>
	<g>
		<g>
			<path class="st1" d="M108.1,140.1c-2.6-3.2-2.8-3.6-5.9-6c2.9-10.8,4.7-22.3,3.7-33.6c-1-11.3-4.9-22.6-12-30l-44.6-0.9
				c-7.1,7.4-11,18.7-12,30c-1,11.3,0.8,22.8,3.7,33.6c-3.1,2.4-3.3,2.8-5.9,6c-1.6,1.9-3.1,4.5-2.6,7.1c0.4,1.9,1.8,3.3,3.2,4.2
				c5.9,4,10.9,6,16.5,1.5c0.6-0.5,1.1-1,1.8-1.1c0.4-0.1,0.8,0,1.1,0c10.4,3.5,21.6,3.9,32.2,1.1c0.6-0.2,1.2-0.3,1.7-0.2
				c0.7,0.1,1.2,0.6,1.8,1.1c5.6,4.5,10.7,2.5,16.5-1.5c1.4-1,2.8-2.3,3.2-4.2C111.2,144.6,109.6,142,108.1,140.1z"/>
		</g>
		<g>
			<g>
				<g>
					<path class="st2" d="M92.9,156.1C92.9,156,92.9,156,92.9,156.1c3.3-1.7,5.4-4.9,5.4-8.2c0-2.4-1.1-4.7-1.9-7
						c-2.5-7.4-1.9-15.4-2.1-23.1c-0.2-6.6-1.2-13.6-4.9-19.2c-1-1.5-3-2.4-5.2-2.4l0,0c-2.2,0-4.2,1-5.1,2.6
						c-3.6,5.9-4.3,13-4.2,19.8c0.1,7.8,1.1,15.7-1,23.2c-0.7,2.3-1.6,4.6-1.5,7c0.1,3.3,2.4,6.4,5.7,7.9c0,0,0,0,0,0
						c0.1,0,0.2,0.1,0.3,0.1c0.1,0,0.1,0,0.2,0C83.4,157.6,88.7,158.2,92.9,156.1z"/>
				</g>
			</g>
		</g>
		<g>
			<g>
				<g>
					<path class="st2" d="M66.1,156.2C66.1,156.2,66.1,156.2,66.1,156.2c3.3-1.7,5.4-4.9,5.4-8.2c0-2.4-1.1-4.7-1.9-7
						c-2.5-7.4-1.9-15.4-2.1-23.1c-0.2-6.6-1.2-13.6-4.9-19.2c-1-1.5-3-2.4-5.2-2.4l0,0c-2.2,0-4.2,1-5.1,2.6
						c-3.6,5.9-4.3,13-4.2,19.8c0.1,7.8,1.1,15.7-1,23.2c-0.7,2.3-1.6,4.6-1.5,7c0.1,3.3,2.4,6.4,5.7,7.9c0,0,0,0,0,0
						c0.1,0,0.2,0.1,0.3,0.1c0.1,0,0.1,0,0.2,0C56.6,157.7,61.8,158.3,66.1,156.2z"/>
				</g>
			</g>
		</g>
		<g>
			<path class="st3" d="M61.3,157.4c0,0-1.9-3.3-1-6.8c0,0-2.4,4.9-2.1,7.1C58.2,157.7,60.2,157.9,61.3,157.4z"/>
			<path class="st3" d="M52.6,157c0,0-1-4.7-0.1-7.1c0,0-2.4,3.7-2.6,6.2C49.9,156,51.5,157,52.6,157z"/>
			<path class="st3" d="M79.5,156.7c0,0,2.2-3,1.7-6.7c0,0,1.9,5.1,1.3,7.3C82.5,157.4,80.6,157.4,79.5,156.7z"/>
			<path class="st3" d="M89.4,157.1c0,0,0.8-4.5-0.1-6.9c0,0,2.4,3.7,2.6,6.2C91.9,156.3,90.5,157.1,89.4,157.1z"/>
		</g>
	</g>
	<g>
		<g>
			<g>
				<path class="st4" d="M36.9,31.2c1.6,5.5,4.2,10.4,5.6,16c1.4,5.6,1.4,12.5-1.5,16.8c-1.8,2.6-4.4,3.9-6,6.9
					c-1.5,2.8-1.5,6.5-2.6,9.7c-0.2,0.8-0.6,1.5-1.1,2c-0.4,0.4-0.9,0.6-1.3,0.7c-2.3,0.7-4.8,0-7-1.5c-2.1-1.5-4-3.8-5.5-6.4
					c-0.7-1.1-1.3-2.3-1.7-3.7c-0.6-2.1-0.7-4.4-0.7-6.7c-0.1-5.3-0.2-10.6,1.1-15.6c1.2-4.8,3.6-8.8,5.9-12.7
					c1.9-3.2,3.9-6.5,6.4-9c1.7-1.7,3.6-2.9,5.5-4.1L36.9,31.2z"/>
			</g>
			<circle class="st4" cx="29.5" cy="25.7" r="4.5"/>
			<circle class="st4" cx="26.1" cy="32" r="4.5"/>
			<circle class="st4" cx="20.2" cy="35.2" r="4.5"/>
			<circle class="st4" cx="19.9" cy="41.5" r="4.5"/>
			<circle class="st4" cx="16.9" cy="47.8" r="4.5"/>
			<circle class="st4" cx="15.6" cy="55.1" r="4.5"/>
			<circle class="st4" cx="15.4" cy="62.1" r="4.5"/>
			<circle class="st4" cx="17.5" cy="67.6" r="4.5"/>
			<circle class="st4" cx="18.5" cy="74.5" r="4.5"/>
			<circle class="st4" cx="21.9" cy="81" r="4.5"/>
			<circle class="st4" cx="28.7" cy="81.3" r="4.5"/>
			<circle class="st4" cx="33.5" cy="77.3" r="4.5"/>
			<circle class="st4" cx="34.4" cy="70.5" r="4.5"/>
		</g>
		<g>
			<g>
				<path class="st4" d="M106.2,30.5c-1.6,5.5-4.2,10.4-5.6,16s-1.4,12.5,1.5,16.8c1.8,2.6,4.4,3.9,6,6.9c1.5,2.8,1.5,6.5,2.6,9.7
					c0.2,0.8,0.6,1.5,1.1,2c0.4,0.4,0.9,0.6,1.3,0.7c2.3,0.7,4.8,0,7-1.5c2.1-1.5,4-3.8,5.5-6.4c0.7-1.1,1.3-2.3,1.7-3.7
					c0.6-2.1,0.7-4.4,0.7-6.7c0.1-5.3,0.2-10.6-1.1-15.6c-1.2-4.8-3.6-8.8-5.9-12.7c-1.9-3.2-3.9-6.5-6.4-9
					c-1.7-1.7-3.6-2.9-5.5-4.1L106.2,30.5z"/>
			</g>
			<circle class="st4" cx="113.6" cy="25" r="4.5"/>
			<circle class="st4" cx="117" cy="31.2" r="4.5"/>
			<circle class="st4" cx="122.9" cy="34.5" r="4.5"/>
			<circle class="st4" cx="123.2" cy="40.7" r="4.5"/>
			<circle class="st4" cx="126.2" cy="47.1" r="4.5"/>
			<circle class="st4" cx="127.5" cy="54.3" r="4.5"/>
			<circle class="st4" cx="127.7" cy="61.3" r="4.5"/>
			<circle class="st4" cx="125.6" cy="66.8" r="4.5"/>
			<circle class="st4" cx="124.6" cy="73.7" r="4.5"/>
			<circle class="st4" cx="121.2" cy="80.2" r="4.5"/>
			<circle class="st4" cx="114.4" cy="80.6" r="4.5"/>
			<circle class="st4" cx="109.6" cy="76.6" r="4.5"/>
			<circle class="st4" cx="108.7" cy="69.7" r="4.5"/>
		</g>
		<path class="st2" d="M101.7,55.1c2-4.7,3-10,2.8-15.6c-0.6-19.6-16.1-29.6-34.5-29C51.6,11.1,37.1,22,37.7,41.6
			c0.2,5.1,1.3,9.9,3.3,14.2c-3.7,4.6-5.8,10.1-5.6,15.9c0.5,15.5,16.8,26.2,36.7,25.5c19.8-0.6,35.7-12.3,35.2-27.8
			C107.1,64.1,105.1,59.2,101.7,55.1z"/>
		<ellipse class="st1" cx="70.9" cy="77.7" rx="19.1" ry="16.4"/>
		<path class="st2" d="M111.3,22.9c0-3-2.5-5.4-5.5-5.4c-0.1,0-0.2,0-0.2,0c0-2.9-2.4-5.3-5.3-5.4c-0.5-2.5-2.7-4.4-5.4-4.4
			c-0.6,0-1.1,0.1-1.6,0.2c-0.8-1.2-2.1-2.2-3.6-2.5c-0.5-2.5-2.7-4.3-5.4-4.3c-2.3,0-4.3,1.4-5.1,3.4c-1-0.9-2.3-1.4-3.7-1.4
			c-1.5,0-2.8,0.6-3.8,1.5c-1-1.4-2.6-2.3-4.5-2.3c-2.5,0-4.7,1.7-5.3,4c-1-0.9-2.3-1.4-3.7-1.4c-1.9,0-3.6,0.9-4.6,2.4
			c-1-1.1-2.4-1.7-4-1.7c-3,0-5.5,2.4-5.5,5.4c0,0,0,0.1,0,0.1c-0.7-0.3-1.4-0.5-2.2-0.5c-3,0-5.5,2.4-5.5,5.4
			c0,0.8,0.2,1.5,0.4,2.1C34.1,18.7,32,21,32,23.7c0,1.3,0.5,2.6,1.3,3.5c-1.2,1-2,2.5-2,4.2c0,3,2.5,5.4,5.5,5.4
			c1.2,0,2.4-0.4,3.3-1.1c6.8,4.6,18.1,7.7,31,7.7c13.2,0,24.8-3.2,31.5-8.1c0.8,0.4,1.6,0.6,2.5,0.6c3,0,5.5-2.4,5.5-5.4
			c0-1.3-0.5-2.6-1.3-3.5C110.6,26,111.3,24.5,111.3,22.9z"/>
	</g>
	<g>
		<path class="st5" d="M81,50.3c0.4,2.3,2.5,3.9,4.8,3.5c2.3-0.4,3.9-2.5,3.5-4.8c-0.4-2.3-2.5-3.9-4.8-3.5
			C82.2,45.9,80.6,48,81,50.3z"/>
		<path class="st5" d="M54.4,50.3c0.4,2.3,2.5,3.9,4.8,3.5c2.3-0.4,3.9-2.5,3.5-4.8c-0.4-2.3-2.5-3.9-4.8-3.5
			C55.6,45.9,54.1,48,54.4,50.3z"/>
		<path class="st5" d="M63.2,64.8c0,3,3.3,7.8,7.2,7.8c4,0,7.2-4.9,7.2-7.9c0-3-3.3-5.4-7.2-5.4C66.4,59.4,63.2,61.8,63.2,64.8z"/>
		<path class="st5" d="M81.1,84.7c-2.5,0.3-5.3-1.3-7-3c-1.3-1.3-2.1-3.1-2.6-4.9l0-5.7l-1.4,0l0,5.7c-0.4,1.8-1.1,3.5-2.3,4.8
			c-1.7,1.8-4.4,3.4-6.9,3.1c-0.6-0.1-0.6,0.9,0,1c2.7,0.3,5.7-1.5,7.5-3.4c1.2-1.3,1.9-2.8,2.4-4.5c0.5,1.7,1.3,3.3,2.6,4.5
			c1.9,1.9,5,3.6,7.7,3.3C81.7,85.6,81.7,84.6,81.1,84.7z"/>
	</g>
	<g>
		<path class="st6" d="M99,28.6c0,0-2.3-16-7-13.6c-4.7,2.3-23.1,18.6,1.7,19.5L99,28.6z"/>
		<path class="st0" d="M97.7,27.5c0,0-0.9-12.3-5-11.9C88.1,16.1,97.7,27.5,97.7,27.5z"/>
		<path class="st6" d="M98,28.5c0,0,15.4-4.7,15.3,0.6s-7.1,28.8-18.3,6.7L98,28.5z"/>
		<path class="st0" d="M99.5,29.3c0,0,11.5-4.4,12.9-0.5C113.9,33.1,99.5,29.3,99.5,29.3z"/>
		<path class="st6" d="M99.8,33.8c-1.3,2.1-4,2.8-6.1,1.5c-2-1.3-2.6-4-1.2-6.1c1.3-2.1,4-2.8,6.1-1.5
			C100.6,29,101.2,31.7,99.8,33.8z"/>
	</g>
</g>
</svg>
