<?xml version="1.0" encoding="utf-8"?>
<!-- Generator: Adobe Illustrator 22.1.0, SVG Export Plug-In . SVG Version: 6.00 Build 0)  -->
<svg version="1.1" id="Слой_1" xmlns="http://www.w3.org/2000/svg" xmlns:xlink="http://www.w3.org/1999/xlink" x="0px" y="0px"
	 viewBox="0 0 140 160" style="enable-background:new 0 0 140 160;" xml:space="preserve">
<style type="text/css">
	.st0{fill:#9084A0;}
	.st1{fill:#6E6358;}
	.st2{fill:#DACAB8;}
	.st3{fill:#D2BFAB;}
	.st4{fill:#735D8E;}
	.st5{fill:#FFFFFF;}
	.st6{fill:#E2D7C6;}
	.st7{fill:#5D534B;}
	.st8{fill:#928475;}
	.st9{fill:#363636;}
</style>
<g>
	<ellipse class="st0" cx="71.3" cy="150.8" rx="63.5" ry="8.8"/>
	<g>
		<g>
			<path class="st1" d="M96,129.6c4.1-0.3,12.5,1.6,16.5,2.5c4.7,1,8.9,3.6,12.1,6.8c1.1,1,2.1,2.1,3,3.3c1.8,2.2-0.6,5.2-3.5,4.4
				c-8.4-2.5-17.3-3.3-26.1-2.5L96,129.6z"/>
		</g>
		<g>
			<path class="st2" d="M30.2,133c2.2-9.1,1.5-18.6,1.5-28s1.1-19.3,6.3-26.8l52,0.6c0.5,5,2.8,9.6,5.5,13.7
				c2.7,4.1,5.8,7.9,8.3,12.2c5,8.4,7.6,18.9,5.1,28.5c-2.1,8.4-8.7,15.7-16.5,17.3c-9.4,2.3-19.1-0.8-28.7-1.2c-2-0.1-4-0.1-6,0.2
				c-3.4,0.4-6.7,1.3-10,2.1c-4.6,1.1-9.7,1.9-13.8-0.5c0,0,0,0,0,0c-3.2-1.9-5.3-5.7-5.4-9.7C28.5,138.5,29.5,135.8,30.2,133z"/>
		</g>
		<g>
			<path class="st3" d="M81.4,122.8c0,0,28.8-3.8,22.6-16.9c0,0,6.6,6.2,1.9,13.5S81.4,122.8,81.4,122.8z"/>
			<path class="st3" d="M80.1,113c0,0,23-3.5,17.5-16.7c0,0,6.6,6.2,1.9,13.5S80.1,113,80.1,113z"/>
			<path class="st3" d="M82.5,131.1c0,0,27.6,1.5,26.4-12.6c0,0,4.1,8-1.7,14.8C101.5,139.9,82.5,131.1,82.5,131.1z"/>
		</g>
	</g>
	<path class="st4" d="M32.2,94.9c0,0,32.6,15,61.6-4.5l-2.2-5.5l-58,2.3L32.2,94.9z"/>
	<path class="st5" d="M61.3,99.9c0.4-0.3,0.7-0.8,0.7-1.4c0.1-1-0.6-1.9-1.6-2c-0.8-0.1-1.6,0.5-1.8,1.4l-7.2-0.6
		c-0.1-0.9-0.7-1.6-1.6-1.7c-0.9-0.1-1.8,0.7-1.9,1.7c0,0.6,0.2,1.1,0.5,1.5c-0.4,0.3-0.7,0.8-0.7,1.4c-0.1,1,0.6,1.9,1.6,2
		c0.9,0.1,1.6-0.6,1.8-1.5l7.2,0.6c0,0.9,0.7,1.7,1.6,1.8c0.9,0.1,1.8-0.7,1.9-1.7C61.9,100.9,61.7,100.3,61.3,99.9z"/>
	<g>
		<g>
			<path class="st6" d="M31.4,151.2C31.4,151.2,31.4,151.2,31.4,151.2c-3.2-1.6-5.2-4.6-5.2-7.7c0-2.3,1-4.4,1.8-6.6
				c2.4-7.1,1.8-14.6,2.1-21.9c0.2-6.3,1.1-12.9,4.7-18.2c1-1.4,2.9-2.3,5-2.3l0,0c2.1,0,4,1,5,2.5c3.5,5.6,4.2,12.4,4,18.8
				c-0.1,7.4-1.1,14.8,1,22c0.6,2.2,1.6,4.4,1.5,6.7c-0.1,3.1-2.3,6-5.6,7.5c0,0,0,0,0,0c-0.1,0-0.2,0.1-0.3,0.1c-0.1,0-0.1,0-0.2,0
				C40.6,152.7,35.5,153.2,31.4,151.2z"/>
		</g>
		<g>
			<path class="st6" d="M60.5,154.2C60.5,154.2,60.5,154.2,60.5,154.2c-3.2-1.6-5.2-4.6-5.2-7.7c0-2.3,1-4.4,1.8-6.6
				c2.4-7.1,1.8-14.6,2.1-21.9c0.2-6.3,1.1-12.9,4.7-18.2c1-1.4,2.9-2.3,5-2.3l0,0c2.1,0,4,1,5,2.5c3.5,5.6,4.2,12.4,4,18.8
				c-0.1,7.4-1.1,14.8,1,22c0.6,2.2,1.6,4.4,1.5,6.7c-0.1,3.1-2.3,6-5.6,7.5c0,0,0,0,0,0c-0.1,0-0.2,0.1-0.3,0.1c-0.1,0-0.1,0-0.2,0
				C69.7,155.7,64.6,156.2,60.5,154.2z"/>
		</g>
		<g>
			<path class="st3" d="M60.8,154.2c0,0,2.6-2.8,2.4-6.4c0,0,1.3,5.3,0.5,7.4C63.8,155.2,61.8,155,60.8,154.2z"/>
			<path class="st3" d="M70,155.4c0,0,1.8-4.2,1.4-6.8c0,0,1.5,4.1,1.2,6.6C72.6,155.2,71.1,155.7,70,155.4z"/>
			<path class="st3" d="M42,152.1c0,0-2-3.2-1.2-6.8c0,0-2.3,5-1.9,7.2C38.9,152.5,40.9,152.7,42,152.1z"/>
			<path class="st3" d="M32.7,151.4c0,0-0.5-4.6,0.6-6.9c0,0-2.7,3.5-3,5.9C30.2,150.4,31.6,151.3,32.7,151.4z"/>
		</g>
	</g>
	<g>
		<path class="st7" d="M15.3,35.4l5.3,7.2l26.6-25.3c0,0-6-4.4-7-4"/>
		<path class="st7" d="M107.3,40.7L101,47L78.5,17.9c0,0,6.6-3.5,7.6-2.9"/>
		<path class="st6" d="M15.3,57.5c-0.2,25,20.1,37.7,44.7,38c24.6,0.2,44.2-12.2,44.4-37.2c0.2-25-21.1-45.3-41.7-45.3
			C40.8,13.1,15.6,32.6,15.3,57.5z"/>
		<g>
			<path class="st2" d="M45.5,42c3,0.3,5.6,2.3,8.6,3c2.2,0.5,4.5,0.6,6.7,0.4c5.8-0.5,11.4-3.6,17.2-1.6c1.6,0.5,2.2-1.9,0.7-2.5
				c-5.3-1.8-10.1,0.1-15.3,1.1c-3.8,0.7-7.5,0.7-11.1-0.8c-2.4-0.9-4.2-2-6.8-2.3C43.8,39.2,43.9,41.8,45.5,42L45.5,42z"/>
			<path class="st2" d="M51,34c2.1,0.2,4,1.6,6.1,2.1c1.6,0.4,3.2,0.4,4.8,0.3c4.1-0.4,8-2.5,12.2-1.1c1.1,0.4,1.6-1.4,0.5-1.8
				c-3.7-1.3-7.1,0.1-10.8,0.8c-2.7,0.5-5.3,0.5-7.9-0.5c-1.7-0.6-3-1.4-4.8-1.6C49.8,32.1,49.8,33.9,51,34L51,34z"/>
			<path class="st2" d="M53.1,25.9c1.8,0.2,3.3,1.4,5.1,1.8c1.3,0.3,2.7,0.4,4,0.2c3.5-0.3,6.8-2.1,10.3-0.9
				c0.9,0.3,1.3-1.2,0.4-1.5c-3.2-1.1-6,0.1-9.1,0.7c-2.3,0.4-4.5,0.4-6.6-0.5c-1.4-0.5-2.5-1.2-4-1.3
				C52.1,24.2,52.1,25.8,53.1,25.9L53.1,25.9z"/>
		</g>
		<path class="st8" d="M84.5,81.2c-0.8,9.5-14.6,13-29.5,11.7c-14.9-1.3-26.2-7.1-25.4-16.5c0.8-9.5,13.6-15.5,28.6-14.4
			C74.7,63.2,85.3,71.7,84.5,81.2z"/>
		<ellipse transform="matrix(0.1608 -0.987 0.987 0.1608 7.5398 126.88)" class="st8" cx="78.4" cy="59" rx="11.7" ry="11.7"/>
		<circle class="st8" cx="37.9" cy="56.8" r="11.7"/>
		<path class="st1" d="M40.3,13.3c0,0,11.3,24.6,2.1,28.5s-23.6-3.2-23.6-3.2s-4.3-0.8-3.3-4.4C16.5,30.7,20.4,12.7,40.3,13.3z"/>
		<path class="st1" d="M86.1,15c0,0-15,22.6-6.5,27.9c8.5,5.3,23.8,0.5,23.8,0.5s4.3-0.1,3.9-3.8C106.9,35.9,105.8,17.6,86.1,15z"/>
	</g>
	<g>
		<path class="st9" d="M73.5,59.6c0,2.4,1.9,4.3,4.3,4.3c2.4,0,4.3-1.9,4.3-4.3c0-2.4-1.9-4.3-4.3-4.3
			C75.5,55.2,73.5,57.2,73.5,59.6z"/>
		<path class="st9" d="M34.5,57.3c0,2.4,1.9,4.3,4.3,4.3c2.4,0,4.3-1.9,4.3-4.3S41.2,53,38.8,53C36.4,53,34.5,54.9,34.5,57.3z"/>
		<path class="st9" d="M48.9,62.9c-0.3,2.9,3.1,8.1,7.9,8.6s9.3-3.7,9.6-6.7c0.3-2.9-3.4-5.7-8.2-6.2S49.3,59.9,48.9,62.9z"/>
		<path class="st9" d="M66,84.6c-2.5,0.1-5.2-1.6-6.8-3.5c-1.2-1.4-1.9-3.2-2.2-5l0.4-5.7l-1.3-0.1L55.6,76
			c-0.5,1.8-1.3,3.4-2.7,4.7c-1.8,1.7-4.7,3.1-7.1,2.6c-0.6-0.1-0.6,0.9,0,1c2.7,0.5,5.8-1.1,7.8-2.9c1.3-1.2,2.1-2.7,2.7-4.3
			c0.4,1.7,1.1,3.3,2.3,4.7c1.8,2.1,4.7,4,7.4,3.8C66.6,85.5,66.6,84.6,66,84.6z"/>
	</g>
</g>
</svg>
